# xmcd
#
# Track frame offsets:
#	150
#	31274
#	54386
#	81276
#	101768
#	122084
#	141939
#	167338
#
# Disc length: 2582 seconds
#
# Revision: 0
# Processed by: cddbd v1.5.1PL0 Copyright (c) Steve Scherf et al.
# Submitted via: dBpowerAMP V4.0
#
DISCID=620a1408
DTITLE=Cowboy Junkies - Live From Liberty Lunch
DYEAR=1989
DGENRE=Blues
TTITLE0=Shining Moon
TTITLE1=Blue Moon Revisited
TTITLE2=Where Are You Tonight?
TTITLE3=I Don't Get It
TTITLE4=Cause Cheap is How I Feel
TTITLE5=Sun Comes Up, It's Tuesday Morning
TTITLE6=Me and the Devil
TTITLE7=Escape is So Simple
EXTD=
EXTT0=
EXTT1=
EXTT2=
EXTT3=
EXTT4=
EXTT5=
EXTT6=
EXTT7=
PLAYORDER=
